<svg width="21" height="20" viewBox="0 0 21 20" fill="none" xmlns="http://www.w3.org/2000/svg">
<path d="M20.6248 9.89992C20.6248 10.9343 18.9649 11.6926 18.6632 12.6259C18.3505 13.5932 19.2389 15.1848 18.6556 15.99C18.0664 16.8033 16.2812 16.4433 15.4718 17.035C14.6703 17.621 14.4627 19.4411 13.4998 19.7553C12.5708 20.0581 11.3421 18.7182 10.3124 18.7182C9.28276 18.7182 8.05407 20.0581 7.12505 19.7551C6.16218 19.4411 5.95458 17.621 5.15305 17.0348C4.34363 16.4429 2.55802 16.8031 1.96929 15.9897C1.38597 15.1845 2.27437 13.5929 1.96162 12.6256C1.65992 11.6926 0 10.9343 0 9.89992C0 8.86553 1.65992 8.10726 1.96162 7.17397C2.27437 6.20669 1.38597 4.61509 1.96929 3.80989C2.55847 2.99652 4.34363 3.35651 5.15305 2.76485C5.95458 2.17885 6.16218 0.358758 7.12505 0.044565C8.05407 -0.258293 9.28276 1.08167 10.3124 1.08167C11.3421 1.08167 12.5708 -0.258293 13.4998 0.0447919C14.4627 0.358758 14.6703 2.17885 15.4718 2.76507C16.2812 3.35696 18.0668 2.99675 18.6556 3.81012C19.2389 4.61532 18.3505 6.20691 18.6632 7.1742C18.9649 8.10726 20.6248 8.86553 20.6248 9.89992Z" fill="#0D0543"/>
<path d="M10.4412 4.83457L7.47237 10.4232C7.43982 10.4846 7.42365 10.5533 7.42543 10.6227C7.4272 10.6922 7.44687 10.76 7.48253 10.8196C7.51818 10.8792 7.56861 10.9286 7.62893 10.9629C7.68925 10.9973 7.75742 11.0155 7.82682 11.0157H9.3874C9.4403 11.0157 9.49269 11.0261 9.54158 11.0463C9.59047 11.0666 9.63489 11.0963 9.67231 11.1337C9.70973 11.1711 9.73942 11.2156 9.75967 11.2645C9.77992 11.3134 9.79035 11.3659 9.79035 11.4188V14.7762C9.79035 15.1913 10.3415 15.3356 10.5443 14.9733L13.644 9.43822C13.6782 9.37688 13.6959 9.30764 13.6952 9.23736C13.6945 9.16708 13.6755 9.0982 13.64 9.03755C13.6046 8.9769 13.5539 8.92657 13.493 8.89157C13.4321 8.85656 13.3631 8.83809 13.2929 8.83798L11.6011 8.83617C11.4944 8.83599 11.3921 8.79344 11.3167 8.71787C11.2413 8.6423 11.1989 8.53987 11.1989 8.43306V5.02399C11.1995 4.60386 10.6382 4.4639 10.4412 4.83457Z" fill="white"/>
</svg>
