<svg width="38" height="39" viewBox="0 0 38 39" fill="none" xmlns="http://www.w3.org/2000/svg">
<path d="M8.04181 30.952V35.0428C8.04181 35.4814 8.39861 35.8382 8.83724 35.8382H15.3522C15.7908 35.8382 16.1476 35.4814 16.1476 35.0428V30.952C16.1476 30.5134 15.7908 30.1566 15.3522 30.1566H8.83724C8.39861 30.1566 8.04181 30.5134 8.04181 30.952ZM9.17813 31.2929H15.0113V34.7019H9.17813V31.2929Z" fill="#3E6CF9"/>
<path d="M13.2309 28.4143H10.9583C10.6444 28.4143 10.3901 28.6687 10.3901 28.9825C10.3901 29.2963 10.6444 29.5506 10.9583 29.5506H13.2309C13.5448 29.5506 13.7991 29.2963 13.7991 28.9825C13.7991 28.6687 13.5447 28.4143 13.2309 28.4143Z" fill="#3E6CF9"/>
<path d="M15.7306 10.6436C15.4168 10.6436 15.1625 10.898 15.1625 11.2118V12.8027C15.1625 13.1164 15.4168 13.3708 15.7306 13.3708C16.0445 13.3708 16.2988 13.1164 16.2988 12.8027V11.2118C16.2988 10.898 16.0444 10.6436 15.7306 10.6436Z" fill="#3E6CF9"/>
<path d="M22.5491 13.3708C22.8629 13.3708 23.1172 13.1164 23.1172 12.8027V11.2118C23.1172 10.898 22.8629 10.6436 22.5491 10.6436C22.2352 10.6436 21.9809 10.898 21.9809 11.2118V12.8027C21.9809 13.1164 22.2352 13.3708 22.5491 13.3708Z" fill="#3E6CF9"/>
<path d="M36.8664 34.0648C37.1803 34.0648 37.4346 33.8105 37.4346 33.4967V26.8174C37.4346 25.2509 36.1602 23.9766 34.5938 23.9766H34.1014V22.8781C34.1014 22.4077 33.7561 22.0173 33.3059 21.9445V20.4919H33.3736L35.3283 22.4466C35.4393 22.5575 35.5847 22.613 35.7301 22.613C35.8755 22.613 36.0209 22.5575 36.1319 22.4466C36.3538 22.2247 36.3538 21.8649 36.1319 21.6431L34.9806 20.4919H35.5028C35.9414 20.4919 36.2982 20.135 36.2982 19.6964V18.0298C36.2982 17.5912 35.9414 17.2344 35.5028 17.2344H30.5788C29.806 17.2344 29.1773 17.8631 29.1773 18.6359V19.0904C29.1773 19.7591 29.6483 20.319 30.2757 20.4579V21.9445C29.9408 21.9987 29.6643 22.2287 29.5445 22.5365H22.5793V21.6608C24.6477 21.0093 26.248 19.2936 26.7377 17.1586H27.1699C28.7363 17.1586 30.0107 15.8843 30.0107 14.3178V13.472C30.0107 12.6607 29.6683 11.9283 29.121 11.4101V8.63462C29.1208 3.87358 25.2475 0.000152588 20.4864 0.000152588H17.7931C13.0319 0.000152588 9.1586 3.87358 9.1586 8.63462V11.4101C8.61134 11.9283 8.26893 12.6607 8.26893 13.472V14.3178C8.26893 15.8843 9.54328 17.1586 11.1097 17.1586H11.5419C12.0316 19.2936 13.6319 21.0093 15.7003 21.6608V22.5366H10.5337C10.2199 22.5366 9.96555 22.7909 9.96555 23.1047C9.96555 23.4185 10.2199 23.6729 10.5337 23.6729H15.8644L18.5716 31.4587V37.6503H5.69493V35.829C6.50187 35.7431 7.13261 35.0587 7.13261 34.2294C7.13261 33.8759 7.01981 33.5424 6.81429 33.2686C7.01989 32.9947 7.13261 32.6611 7.13261 32.3077C7.13261 31.9543 7.01973 31.6206 6.81436 31.3468C7.01988 31.0729 7.13261 30.7394 7.13261 30.3861C7.13261 30.0325 7.01981 29.6989 6.81436 29.4252C7.01988 29.1512 7.13261 28.8177 7.13261 28.4644C7.13261 27.6351 6.50187 26.9506 5.69493 26.8647V24.1256C6.13817 23.8395 6.6655 23.6728 7.23117 23.6728H11.2284C11.5422 23.6728 11.7965 23.4184 11.7965 23.1046C11.7965 22.7909 11.5422 22.5365 11.2284 22.5365H7.23117C6.68664 22.5365 6.16779 22.6472 5.69493 22.8464V18.3707C5.69493 17.8485 5.27017 17.4238 4.74799 17.4238H3.0123C2.49012 17.4238 2.06536 17.8485 2.06536 18.3707V27.0405C1.2213 27.3981 0.627686 28.235 0.627686 29.2079V33.4859C0.627686 34.4589 1.2213 35.2957 2.06536 35.6534V37.8397C2.06536 38.3619 2.49012 38.7867 3.0123 38.7867H36.4876C37.0098 38.7867 37.4346 38.3619 37.4346 37.8397V32.802C37.4346 32.4883 37.1803 32.2339 36.8664 32.2339C36.5526 32.2339 36.2982 32.4883 36.2982 32.802V34.658H30.6166V25.1129H34.5938C35.5336 25.1129 36.2982 25.8775 36.2982 26.8174V33.4967C36.2982 33.8105 36.5526 34.0648 36.8664 34.0648ZM3.20169 18.5601H4.55861V24.6584H3.20169V18.5601ZM3.20169 25.7947H4.55861V26.8553L3.20169 26.8553V25.7947ZM4.55861 37.6503H3.20169V35.8385H4.55861V37.6503ZM2.98025 34.7022C2.3096 34.7022 1.76401 34.1566 1.76401 33.4859V29.2079C1.76401 28.5373 2.3096 27.9916 2.98025 27.9916L5.52342 27.9917C5.78409 27.9917 5.99621 28.2037 5.99621 28.4644C5.99621 28.6159 5.92833 28.7501 5.8047 28.8428C5.62251 28.9797 5.51365 29.1974 5.51365 29.4253C5.51365 29.6531 5.62251 29.8709 5.80538 30.0082C5.92848 30.1004 5.99628 30.2345 5.99628 30.3861C5.99628 30.5375 5.92841 30.6717 5.80531 30.764C5.62266 30.9007 5.51365 31.1187 5.51365 31.3469C5.51365 31.5745 5.62236 31.7921 5.80516 31.9296C5.92841 32.022 5.99621 32.1562 5.99621 32.3077C5.99621 32.4592 5.92833 32.5935 5.80447 32.6863C5.62236 32.8232 5.51365 33.0409 5.51365 33.2686C5.51365 33.4967 5.62259 33.7145 5.80531 33.8515C5.92841 33.9437 5.99628 34.078 5.99628 34.2294C5.99628 34.4901 5.78417 34.7022 5.5235 34.7022H2.98025ZM28.8743 13.472V14.3178C28.8743 15.2577 28.1096 16.0223 27.1698 16.0223H26.8899C26.8935 15.9421 26.8961 15.8616 26.8961 15.7805V11.7675H27.1698C28.1096 11.7675 28.8743 12.5322 28.8743 13.472ZM11.1097 16.0223C10.1699 16.0223 9.40526 15.2577 9.40526 14.3178V13.472C9.40526 12.5321 10.1699 11.7675 11.1097 11.7675H11.3834V15.7805C11.3834 15.8616 11.386 15.9421 11.3896 16.0223H11.1097ZM23.7408 6.43114H14.1221C12.612 6.43114 11.3834 7.65966 11.3834 9.16975V10.6312H11.1097C10.8266 10.6312 10.5532 10.6734 10.2949 10.7509V8.63462C10.2949 4.50015 13.6586 1.13648 17.7931 1.13648H20.4864C24.6209 1.13648 27.9845 4.50015 27.9845 8.63462V10.7509C27.7263 10.6734 27.4529 10.6312 27.1697 10.6312H26.896V9.16975C26.896 7.65966 25.6674 6.43114 24.1573 6.43114H23.0461C22.7323 6.43114 22.478 6.68552 22.478 6.9993C22.478 7.31308 22.7323 7.56746 23.0461 7.56746H24.1573C25.0408 7.56746 25.7597 8.28623 25.7597 9.16975V15.5466H23.4878C22.4728 14.4815 20.8957 13.8485 19.2014 13.8334L19.6712 12.5913C19.7822 12.2978 19.6342 11.9699 19.3407 11.8589C19.0472 11.7478 18.7194 11.8958 18.6083 12.1893L17.9473 13.9372C16.6967 14.1587 15.5762 14.7233 14.7917 15.5466H12.5198V9.16968C12.5198 8.28615 13.2387 7.56739 14.1222 7.56739H23.7408C24.0546 7.56739 24.309 7.313 24.309 6.99922C24.309 6.68545 24.0546 6.43114 23.7408 6.43114ZM12.6025 16.683H15.0447C15.2119 16.683 15.3707 16.6093 15.4787 16.4815C16.2793 15.534 17.648 14.9683 19.1398 14.9683C20.6315 14.9683 22.0002 15.5339 22.8008 16.4815C22.9087 16.6093 23.0675 16.683 23.2348 16.683H25.677C25.2505 19.0254 23.1966 20.8073 20.733 20.8073H17.5466C15.0829 20.8073 13.0291 19.0253 12.6025 16.683ZM16.8365 23.0087V21.9016C17.0696 21.9285 17.3063 21.9436 17.5466 21.9436H20.7329C20.9731 21.9436 21.2098 21.9285 21.4429 21.9016V23.0087L20.7424 25.0234C19.6907 25.2414 18.5888 25.2414 17.5371 25.0234L16.8365 23.0087ZM17.9628 26.248C18.7417 26.3504 19.5377 26.3504 20.3165 26.248L19.1397 29.6327L17.9628 26.248ZM29.4803 37.6503H19.7079V31.4587L22.4151 23.6729H29.4803V37.6503ZM36.2982 35.7943V37.6503H30.6166V35.7943H36.2982ZM30.5788 19.3555C30.4325 19.3555 30.3136 19.2366 30.3136 19.0904V18.6359C30.3136 18.4897 30.4325 18.3707 30.5788 18.3707H35.1619V19.3555H30.5788ZM32.1696 20.4919V21.9312H31.4121V20.4919H32.1696ZM32.965 23.9766H30.6166V23.0675H32.965V23.9766Z" fill="black"/>
</svg>
