<svg width="38" height="35" viewBox="0 0 38 35" fill="none" xmlns="http://www.w3.org/2000/svg">
<path d="M13.9309 15.138V14.9149H13.7079H8.19668C4.14632 14.9149 0.850758 11.6194 0.850758 7.56902C0.850758 3.51867 4.14632 0.223103 8.19668 0.223103H29.8657C33.916 0.223103 37.2115 3.51852 37.2115 7.56888C37.2115 11.6192 33.916 14.9148 29.8657 14.9148H20.1777H19.9547V15.1379V17.4511V17.6481L20.1502 17.6725L25.9417 18.394C27.4463 18.5814 28.5813 19.8666 28.5813 21.3828V33.5C28.5813 33.9724 28.1984 34.3553 27.726 34.3553H14.7861C14.3138 34.3553 13.9309 33.9724 13.9309 33.5V29.6897V29.5857L13.8512 29.5188L9.13939 25.5651L8.996 25.736L9.13939 25.5651C7.8406 24.4753 7.76248 22.5822 8.95698 21.3876L8.79924 21.2299L8.95699 21.3876C10.1031 20.2414 12.0538 20.1563 13.2954 21.1982L13.2954 21.1982L13.5645 21.424L13.9309 21.7314V21.2531V15.138ZM15.6414 32.4217V32.6448H15.8644H26.6477H26.8708V32.4217V30.2651V30.042H26.6477H15.8644H15.6414V30.2651V32.4217ZM26.6478 28.3315H26.8709V28.1084V21.3828C26.8709 20.7274 26.3807 20.1725 25.7303 20.0914L25.7027 20.3128L25.7303 20.0914L18.9938 19.2522C18.9938 19.2522 18.9938 19.2522 18.9938 19.2522C18.5656 19.1988 18.2442 18.8349 18.2442 18.4035V9.77686C18.2442 9.05907 17.6606 8.47546 16.9428 8.47546C16.2251 8.47546 15.6414 9.05907 15.6414 9.77686V23.5655C15.6414 24.2908 14.7914 24.6863 14.2364 24.2207L12.1959 22.5085L12.0526 22.6794L12.1959 22.5085C11.6286 22.0325 10.6903 22.0734 10.1665 22.5971L10.1665 22.5971C9.68035 23.0833 9.71295 23.8134 10.2388 24.2547L15.0352 28.2793L15.0974 28.3315H15.1786H26.6478ZM19.9547 12.9813V13.2044H20.1777H29.8657C32.9732 13.2044 35.501 10.6766 35.501 7.56902C35.501 4.46145 32.9732 1.93361 29.8657 1.93361H8.19668C5.0891 1.93361 2.56127 4.46152 2.56127 7.56902C2.56127 10.6765 5.0891 13.2044 8.1966 13.2044H13.7078H13.9309V12.9813V9.77686C13.9309 8.11629 15.2822 6.76495 16.9428 6.76495C18.6033 6.76495 19.9547 8.11629 19.9547 9.77686V12.9813Z" fill="black" stroke="white" stroke-width="0.446144"/>
<path d="M29.2025 4.78687L29.2025 4.78684C29.5364 4.45279 30.0779 4.45279 30.4119 4.78684L30.4119 4.78686C30.7459 5.12087 30.7459 5.66236 30.4119 5.99636L26.0986 10.3097L26.0986 10.3097C25.7646 10.6437 25.223 10.6437 24.8891 10.3097L24.8891 10.3097L22.7324 8.15302C22.3984 7.81901 22.3984 7.27752 22.7324 6.94352C23.0664 6.6095 23.608 6.60952 23.9419 6.9435L23.9419 6.94352L25.3361 8.33765L25.4939 8.49538L25.6516 8.33765L29.2025 4.78687Z" fill="#3E6CF9" stroke="white" stroke-width="0.446144"/>
<rect x="6.20453" y="5.91451" width="6.69216" height="1.11536" rx="0.55768" fill="#3E6CF9"/>
<rect x="6.20453" y="8.14505" width="4.46144" height="1.11536" rx="0.55768" fill="#3E6CF9"/>
</svg>
