<svg width="37" height="37" viewBox="0 0 37 37" fill="none" xmlns="http://www.w3.org/2000/svg">
<path d="M7.99998 4.00006V2.00006H9.99998V4.00006H7.99998Z" fill="#3E6CF9"/>
<mask id="path-2-inside-1_1:96" fill="white">
<path d="M32.6006 25.6456H31.5999C30.8981 25.6462 30.206 25.8023 29.578 26.1017C28.6643 26.5357 27.5906 26.5357 26.6769 26.1017C26.3125 25.9308 25.9256 25.8076 25.5267 25.7354L26.7722 16.4865H28.1275C28.4804 16.4865 28.7665 16.2131 28.7665 15.8759V13.4334C28.7665 13.0962 28.4804 12.8228 28.1275 12.8228H25.5715V10.991C25.5715 10.829 25.504 10.6738 25.3842 10.5593L22.3764 7.68517V5.78863L23.3452 5.04857L24.9995 8.21091L26.1434 7.66502L24.3657 4.26821L25.1561 3.66371H27.4885C27.8414 3.66371 28.1275 3.39031 28.1275 3.0531V0.610669C28.1275 0.273461 27.8414 6.10352e-05 27.4885 6.10352e-05H21.0984C17.9238 0.00372468 15.3512 2.46203 15.3473 5.49553C15.3473 5.83274 15.6334 6.10614 15.9863 6.10614H17.2643V7.68517L15.5346 9.33809C15.4147 9.45258 15.3473 9.60783 15.3473 9.76979V12.8228H14.0693V7.93797C14.0683 7.86233 14.0525 7.7876 14.0227 7.71754C14.011 7.6938 13.9977 7.67075 13.983 7.64854C13.9677 7.61656 13.9497 7.58572 13.9294 7.55634L11.5133 4.67121V0.610669C11.5133 0.273461 11.2272 6.10352e-05 10.8743 6.10352e-05H7.04022C6.68732 6.10352e-05 6.40121 0.273461 6.40121 0.610669V4.67121L3.98512 7.55634C3.96475 7.58572 3.94678 7.61656 3.93144 7.64854C3.91674 7.67075 3.90348 7.6938 3.89182 7.71754C3.86195 7.7876 3.84613 7.86233 3.84517 7.93797V12.8228H1.28914C0.936247 12.8228 0.650131 13.0962 0.650131 13.4334V15.8759C0.650131 16.2131 0.936247 16.4865 1.28914 16.4865H2.64448L5.1283 34.8829C5.16944 35.1874 5.44086 35.4154 5.7622 35.4153H20.8045C21.5292 36.1916 22.5658 36.6358 23.6544 36.6365H24.6551C25.3569 36.6359 26.049 36.4798 26.6769 36.1804C27.5906 35.7464 28.6643 35.7464 29.578 36.1804C30.206 36.4798 30.8981 36.6359 31.5999 36.6365H32.6006C34.7172 36.6346 36.4325 34.9955 36.4346 32.9729V29.3092C36.4325 27.2867 34.7172 25.6476 32.6006 25.6456ZM25.5715 1.22128H26.8495V2.44249H25.5715V1.22128ZM27.4885 14.044V15.2653H18.5424V14.044H27.4885ZM16.6707 4.88493C16.9913 2.78329 18.8758 1.22395 21.0984 1.22128H24.2934V2.76001L21.5131 4.88493H16.6707ZM21.0984 6.10614V7.32736H18.5424V6.10614H21.0984ZM16.6253 10.0226L18.1679 8.54857H21.4729L24.2934 11.2438V12.8228H16.6253V10.0226ZM15.9863 14.044H17.2643V18.3183C17.263 18.5509 17.4001 18.7639 17.6177 18.8679L21.4518 20.6997C21.6388 20.7878 21.7805 20.9443 21.8448 21.1338C21.911 21.3372 21.888 21.5576 21.7809 21.7444C21.597 22.097 21.1489 22.2403 20.7799 22.0645C20.7794 22.0643 20.7788 22.064 20.7783 22.0638L18.1839 20.8242C17.8668 20.6762 17.4842 20.8018 17.3292 21.1048C17.2868 21.1879 17.2646 21.279 17.2643 21.3713V27.4774C17.2643 28.1519 16.6922 28.6986 15.9863 28.6986V23.2032H14.7083V28.6986H13.4303V23.2032H12.1523V28.6986H10.8743V23.2032H9.59625V28.6986C8.89038 28.6986 8.31823 28.1519 8.31823 27.4774V14.044H15.9863ZM7.67922 1.22128H10.2353V4.27432H7.67922V1.22128ZM7.34694 5.49553H10.5675L12.1012 7.32736H5.81332L7.34694 5.49553ZM5.12319 8.54857H12.7913V12.8228H5.12319V8.54857ZM1.92815 15.2653V14.044H7.04022V15.2653H1.92815ZM19.8204 29.3092V32.9729C19.8215 33.3892 19.8971 33.8022 20.044 34.1941H6.32389L3.93272 16.4865H7.04022V27.4774C7.04022 28.8263 8.1846 29.9199 9.59625 29.9199H15.9863C17.398 29.9199 18.5424 28.8263 18.5424 27.4774V22.3593L20.2115 23.1568C21.2201 23.6324 22.4412 23.2368 22.939 22.273C22.9411 22.269 22.9431 22.265 22.9451 22.261C23.1927 21.7921 23.2348 21.2483 23.0621 20.7497C22.8918 20.251 22.5188 19.8386 22.0269 19.6055L18.5424 17.9409V16.4865H25.4839L24.2468 25.6456H23.6544C21.5378 25.6476 19.8225 27.2867 19.8204 29.3092ZM35.1566 32.9729C35.1566 34.3218 34.0122 35.4153 32.6006 35.4153H31.5999C31.0966 35.4146 30.6003 35.3027 30.15 35.088C28.8759 34.4832 27.3791 34.4832 26.105 35.088C25.6547 35.3027 25.1584 35.4146 24.6551 35.4153H23.6544C22.2428 35.4153 21.0984 34.3218 21.0984 32.9729V32.0326C21.7992 32.6376 22.71 32.9727 23.6544 32.9729H24.6551C25.3569 32.9723 26.049 32.8162 26.6769 32.5168C27.5906 32.0828 28.6643 32.0828 29.578 32.5168C30.206 32.8162 30.8981 32.9723 31.5999 32.9729H32.6006C33.545 32.9727 34.4558 32.6376 35.1566 32.0326V32.9729ZM32.6006 31.7517H31.5999C31.0966 31.751 30.6003 31.639 30.15 31.4244C28.8759 30.8195 27.3791 30.8195 26.105 31.4244C25.6547 31.639 25.1584 31.751 24.6551 31.7517H23.6544C22.2428 31.7517 21.0984 30.6582 21.0984 29.3092C21.0984 27.9603 22.2428 26.8668 23.6544 26.8668H24.6551C25.1584 26.8675 25.6547 26.9795 26.105 27.1941C27.3791 27.7986 28.8759 27.7986 30.15 27.1941C30.6003 26.9795 31.0966 26.8675 31.5999 26.8668H32.6006C34.0122 26.8668 35.1566 27.9603 35.1566 29.3092C35.1566 30.6582 34.0122 31.7517 32.6006 31.7517Z"/>
</mask>
<path d="M32.6006 25.6456H31.5999C30.8981 25.6462 30.206 25.8023 29.578 26.1017C28.6643 26.5357 27.5906 26.5357 26.6769 26.1017C26.3125 25.9308 25.9256 25.8076 25.5267 25.7354L26.7722 16.4865H28.1275C28.4804 16.4865 28.7665 16.2131 28.7665 15.8759V13.4334C28.7665 13.0962 28.4804 12.8228 28.1275 12.8228H25.5715V10.991C25.5715 10.829 25.504 10.6738 25.3842 10.5593L22.3764 7.68517V5.78863L23.3452 5.04857L24.9995 8.21091L26.1434 7.66502L24.3657 4.26821L25.1561 3.66371H27.4885C27.8414 3.66371 28.1275 3.39031 28.1275 3.0531V0.610669C28.1275 0.273461 27.8414 6.10352e-05 27.4885 6.10352e-05H21.0984C17.9238 0.00372468 15.3512 2.46203 15.3473 5.49553C15.3473 5.83274 15.6334 6.10614 15.9863 6.10614H17.2643V7.68517L15.5346 9.33809C15.4147 9.45258 15.3473 9.60783 15.3473 9.76979V12.8228H14.0693V7.93797C14.0683 7.86233 14.0525 7.7876 14.0227 7.71754C14.011 7.6938 13.9977 7.67075 13.983 7.64854C13.9677 7.61656 13.9497 7.58572 13.9294 7.55634L11.5133 4.67121V0.610669C11.5133 0.273461 11.2272 6.10352e-05 10.8743 6.10352e-05H7.04022C6.68732 6.10352e-05 6.40121 0.273461 6.40121 0.610669V4.67121L3.98512 7.55634C3.96475 7.58572 3.94678 7.61656 3.93144 7.64854C3.91674 7.67075 3.90348 7.6938 3.89182 7.71754C3.86195 7.7876 3.84613 7.86233 3.84517 7.93797V12.8228H1.28914C0.936247 12.8228 0.650131 13.0962 0.650131 13.4334V15.8759C0.650131 16.2131 0.936247 16.4865 1.28914 16.4865H2.64448L5.1283 34.8829C5.16944 35.1874 5.44086 35.4154 5.7622 35.4153H20.8045C21.5292 36.1916 22.5658 36.6358 23.6544 36.6365H24.6551C25.3569 36.6359 26.049 36.4798 26.6769 36.1804C27.5906 35.7464 28.6643 35.7464 29.578 36.1804C30.206 36.4798 30.8981 36.6359 31.5999 36.6365H32.6006C34.7172 36.6346 36.4325 34.9955 36.4346 32.9729V29.3092C36.4325 27.2867 34.7172 25.6476 32.6006 25.6456ZM25.5715 1.22128H26.8495V2.44249H25.5715V1.22128ZM27.4885 14.044V15.2653H18.5424V14.044H27.4885ZM16.6707 4.88493C16.9913 2.78329 18.8758 1.22395 21.0984 1.22128H24.2934V2.76001L21.5131 4.88493H16.6707ZM21.0984 6.10614V7.32736H18.5424V6.10614H21.0984ZM16.6253 10.0226L18.1679 8.54857H21.4729L24.2934 11.2438V12.8228H16.6253V10.0226ZM15.9863 14.044H17.2643V18.3183C17.263 18.5509 17.4001 18.7639 17.6177 18.8679L21.4518 20.6997C21.6388 20.7878 21.7805 20.9443 21.8448 21.1338C21.911 21.3372 21.888 21.5576 21.7809 21.7444C21.597 22.097 21.1489 22.2403 20.7799 22.0645C20.7794 22.0643 20.7788 22.064 20.7783 22.0638L18.1839 20.8242C17.8668 20.6762 17.4842 20.8018 17.3292 21.1048C17.2868 21.1879 17.2646 21.279 17.2643 21.3713V27.4774C17.2643 28.1519 16.6922 28.6986 15.9863 28.6986V23.2032H14.7083V28.6986H13.4303V23.2032H12.1523V28.6986H10.8743V23.2032H9.59625V28.6986C8.89038 28.6986 8.31823 28.1519 8.31823 27.4774V14.044H15.9863ZM7.67922 1.22128H10.2353V4.27432H7.67922V1.22128ZM7.34694 5.49553H10.5675L12.1012 7.32736H5.81332L7.34694 5.49553ZM5.12319 8.54857H12.7913V12.8228H5.12319V8.54857ZM1.92815 15.2653V14.044H7.04022V15.2653H1.92815ZM19.8204 29.3092V32.9729C19.8215 33.3892 19.8971 33.8022 20.044 34.1941H6.32389L3.93272 16.4865H7.04022V27.4774C7.04022 28.8263 8.1846 29.9199 9.59625 29.9199H15.9863C17.398 29.9199 18.5424 28.8263 18.5424 27.4774V22.3593L20.2115 23.1568C21.2201 23.6324 22.4412 23.2368 22.939 22.273C22.9411 22.269 22.9431 22.265 22.9451 22.261C23.1927 21.7921 23.2348 21.2483 23.0621 20.7497C22.8918 20.251 22.5188 19.8386 22.0269 19.6055L18.5424 17.9409V16.4865H25.4839L24.2468 25.6456H23.6544C21.5378 25.6476 19.8225 27.2867 19.8204 29.3092ZM35.1566 32.9729C35.1566 34.3218 34.0122 35.4153 32.6006 35.4153H31.5999C31.0966 35.4146 30.6003 35.3027 30.15 35.088C28.8759 34.4832 27.3791 34.4832 26.105 35.088C25.6547 35.3027 25.1584 35.4146 24.6551 35.4153H23.6544C22.2428 35.4153 21.0984 34.3218 21.0984 32.9729V32.0326C21.7992 32.6376 22.71 32.9727 23.6544 32.9729H24.6551C25.3569 32.9723 26.049 32.8162 26.6769 32.5168C27.5906 32.0828 28.6643 32.0828 29.578 32.5168C30.206 32.8162 30.8981 32.9723 31.5999 32.9729H32.6006C33.545 32.9727 34.4558 32.6376 35.1566 32.0326V32.9729ZM32.6006 31.7517H31.5999C31.0966 31.751 30.6003 31.639 30.15 31.4244C28.8759 30.8195 27.3791 30.8195 26.105 31.4244C25.6547 31.639 25.1584 31.751 24.6551 31.7517H23.6544C22.2428 31.7517 21.0984 30.6582 21.0984 29.3092C21.0984 27.9603 22.2428 26.8668 23.6544 26.8668H24.6551C25.1584 26.8675 25.6547 26.9795 26.105 27.1941C27.3791 27.7986 28.8759 27.7986 30.15 27.1941C30.6003 26.9795 31.0966 26.8675 31.5999 26.8668H32.6006C34.0122 26.8668 35.1566 27.9603 35.1566 29.3092C35.1566 30.6582 34.0122 31.7517 32.6006 31.7517Z" fill="black" stroke="white" stroke-width="0.24" mask="url(#path-2-inside-1_1:96)"/>
<path d="M33.2395 28.0885H31.9615V29.3097H33.2395V28.0885Z" fill="#3E6CF9"/>
<path d="M26.8495 28.0885H25.5714V29.3097H26.8495V28.0885Z" fill="#3E6CF9"/>
<path d="M24.2934 28.6986H23.0154V29.9198H24.2934V28.6986Z" fill="#3E6CF9"/>
<path d="M30.6835 28.6986H29.4055V29.9198H30.6835V28.6986Z" fill="#3E6CF9"/>
</svg>
