<svg width="152" height="47" viewBox="0 0 152 47" fill="none" xmlns="http://www.w3.org/2000/svg">
<path d="M58.6429 5.82903H66.8264V2.46753H54.8177V18H58.6429V12.4361H65.9223V9.09781H58.6429V5.82903ZM79.5275 6.36224H75.8183V11.7638C75.8183 12.8766 75.5865 13.688 75.1692 14.2212C74.7519 14.7544 74.1491 15.0094 73.4073 15.0094C72.8045 15.0094 72.3409 14.8008 71.9699 14.3835C71.599 13.9662 71.4135 13.4098 71.4135 12.7143V6.36224H67.7275V13.5025C67.7275 14.9631 68.1216 16.1454 68.9562 17.0263C69.7908 17.9073 70.8803 18.3477 72.2481 18.3477C73.6855 18.3477 74.891 17.8609 75.8183 16.8872V18H79.5275V6.36224ZM93.0469 12.1811C93.0005 10.3265 92.421 8.8428 91.285 7.70684C90.1259 6.59406 88.7117 6.01449 87.0426 6.01449C85.3038 6.01449 83.8433 6.59406 82.661 7.7532C81.4555 8.91234 80.8759 10.396 80.8759 12.1811C80.8759 13.9894 81.4555 15.4731 82.661 16.6322C83.8433 17.7914 85.3038 18.3477 87.0194 18.3477C88.364 18.3477 89.5463 18.0464 90.5432 17.4436C91.54 16.8409 92.2819 15.9135 92.7919 14.708L89.4999 14.0357C88.9899 14.9399 88.1785 15.3803 87.0194 15.3803C86.3934 15.3803 85.8602 15.1949 85.4198 14.7776C84.9561 14.3835 84.6547 13.8271 84.5156 13.1316H93.0469V12.1811ZM87.0426 9.02826C87.5989 9.02826 88.0858 9.19054 88.5031 9.49191C88.9204 9.81647 89.1986 10.2569 89.384 10.8597H84.5852C84.7475 10.3033 85.072 9.83966 85.5357 9.5151C85.9993 9.19054 86.4862 9.02826 87.0426 9.02826ZM98.1053 18V1.30839H94.396V18H98.1053ZM111.629 12.1811C111.583 10.3265 111.003 8.8428 109.867 7.70684C108.708 6.59406 107.294 6.01449 105.625 6.01449C103.886 6.01449 102.426 6.59406 101.243 7.7532C100.038 8.91234 99.4584 10.396 99.4584 12.1811C99.4584 13.9894 100.038 15.4731 101.243 16.6322C102.426 17.7914 103.886 18.3477 105.602 18.3477C106.946 18.3477 108.129 18.0464 109.126 17.4436C110.122 16.8409 110.864 15.9135 111.374 14.708L108.082 14.0357C107.572 14.9399 106.761 15.3803 105.602 15.3803C104.976 15.3803 104.443 15.1949 104.002 14.7776C103.539 14.3835 103.237 13.8271 103.098 13.1316H111.629V12.1811ZM105.625 9.02826C106.181 9.02826 106.668 9.19054 107.086 9.49191C107.503 9.81647 107.781 10.2569 107.966 10.8597H103.168C103.33 10.3033 103.654 9.83966 104.118 9.5151C104.582 9.19054 105.069 9.02826 105.625 9.02826ZM120.698 6.19996C118.983 6.19996 117.638 7.01135 116.688 8.58778V6.36224H112.978V18H116.688V14.3603C116.688 11.4625 118.009 10.0019 120.698 10.0019H121.371L121.533 6.29269C121.278 6.24632 121 6.19996 120.698 6.19996Z" fill="#061F6A"/>
<path d="M66.6178 34.4393C66.3396 35.5752 65.8528 36.433 65.1341 37.0126C64.4154 37.5921 63.5577 37.8703 62.5376 37.8703C61.2857 37.8703 60.2425 37.4298 59.3848 36.5489C58.527 35.668 58.1097 34.5552 58.1097 33.2338C58.1097 31.9355 58.527 30.8228 59.3848 29.9418C60.2425 29.0609 61.2857 28.6204 62.5376 28.6204C63.5577 28.6204 64.4386 28.9218 65.1573 29.4782C65.8759 30.0345 66.3628 30.8691 66.5946 31.9587L70.3502 31.0778C69.9793 29.2695 69.052 27.8322 67.6146 26.7426C66.1773 25.6762 64.485 25.1198 62.5376 25.1198C60.2193 25.1198 58.272 25.908 56.6724 27.4844C55.0728 29.0609 54.2845 30.9618 54.2845 33.2338C54.2845 35.5289 55.0728 37.453 56.6724 39.0063C58.272 40.5827 60.2193 41.3477 62.5376 41.3477C64.5545 41.3477 66.27 40.8145 67.7074 39.7018C69.1215 38.6122 70.0025 37.1053 70.3734 35.1811L66.6178 34.4393ZM75.6515 41V24.3084H71.9422V41H75.6515ZM89.1756 35.1811C89.1292 33.3265 88.5496 31.8428 87.4137 30.7068C86.2545 29.5941 84.8404 29.0145 83.1712 29.0145C81.4325 29.0145 79.972 29.5941 78.7897 30.7532C77.5842 31.9123 77.0046 33.396 77.0046 35.1811C77.0046 36.9894 77.5842 38.4731 78.7897 39.6322C79.972 40.7914 81.4325 41.3477 83.148 41.3477C84.4926 41.3477 85.675 41.0464 86.6718 40.4436C87.6687 39.8409 88.4105 38.9135 88.9205 37.708L85.6286 37.0357C85.1186 37.9399 84.3072 38.3803 83.148 38.3803C82.5221 38.3803 81.9889 38.1949 81.5484 37.7776C81.0848 37.3835 80.7834 36.8271 80.6443 36.1316H89.1756V35.1811ZM83.1712 32.0283C83.7276 32.0283 84.2144 32.1905 84.6317 32.4919C85.049 32.8165 85.3272 33.2569 85.5127 33.8597H80.7138C80.8761 33.3033 81.2007 32.8397 81.6643 32.5151C82.128 32.1905 82.6148 32.0283 83.1712 32.0283ZM102.765 29.3622H99.056V30.2895C98.1055 29.455 96.9 29.0145 95.4394 29.0145C93.863 29.0145 92.5184 29.5941 91.4056 30.7532C90.2929 31.9123 89.7597 33.396 89.7597 35.1811C89.7597 36.9894 90.2929 38.4731 91.4056 39.6322C92.5184 40.7914 93.863 41.3477 95.4394 41.3477C96.9 41.3477 98.1055 40.9305 99.056 40.0727V41H102.765V29.3622ZM96.2045 38.1949C95.3699 38.1949 94.6976 37.9167 94.1876 37.3603C93.6544 36.8039 93.3993 36.0852 93.3993 35.1811C93.3993 34.3002 93.6544 33.5815 94.1876 33.0251C94.6976 32.4687 95.3699 32.1674 96.2045 32.1674C96.9695 32.1674 97.6418 32.4687 98.1982 33.0251C98.7546 33.6047 99.056 34.3234 99.056 35.1811C99.056 36.0621 98.7546 36.8039 98.1982 37.3603C97.6418 37.9167 96.9695 38.1949 96.2045 38.1949ZM112.144 29.0145C110.683 29.0145 109.501 29.5013 108.574 30.475V29.3622H104.865V41H108.574V35.5984C108.574 34.5088 108.782 33.6974 109.2 33.1642C109.617 32.631 110.22 32.3528 110.985 32.3528C111.564 32.3528 112.051 32.5846 112.422 33.0019C112.793 33.4192 112.978 33.9756 112.978 34.6479V41H116.665V33.8597C116.665 32.4224 116.247 31.24 115.413 30.3591C114.578 29.4782 113.489 29.0145 112.144 29.0145ZM120.656 23.8215C120.03 23.8215 119.52 24.0302 119.126 24.4475C118.708 24.8648 118.523 25.3516 118.523 25.9312C118.523 26.5339 118.708 27.0208 119.126 27.4149C119.52 27.809 120.03 27.9945 120.656 27.9945C121.259 27.9945 121.769 27.809 122.186 27.4149C122.603 27.0208 122.812 26.5339 122.812 25.9312C122.812 25.3748 122.603 24.8648 122.186 24.4475C121.769 24.0302 121.259 23.8215 120.656 23.8215ZM122.51 41V29.3622H118.801V41H122.51ZM132.085 29.0145C130.624 29.0145 129.442 29.5013 128.515 30.475V29.3622H124.805V41H128.515V35.5984C128.515 34.5088 128.723 33.6974 129.141 33.1642C129.558 32.631 130.161 32.3528 130.926 32.3528C131.505 32.3528 131.992 32.5846 132.363 33.0019C132.734 33.4192 132.919 33.9756 132.919 34.6479V41H136.605V33.8597C136.605 32.4224 136.188 31.24 135.354 30.3591C134.519 29.4782 133.429 29.0145 132.085 29.0145ZM150.542 29.3622H146.902V30.1273C146.021 29.3854 144.862 29.0145 143.402 29.0145C141.848 29.0145 140.527 29.5709 139.437 30.6373C138.325 31.7037 137.792 33.0483 137.792 34.6247C137.792 36.2475 138.325 37.6153 139.437 38.7049C140.527 39.7945 141.848 40.3277 143.402 40.3277C144.862 40.3277 146.021 39.9568 146.902 39.2149V39.5395C146.902 40.4436 146.624 41.1391 146.091 41.6259C145.558 42.136 144.862 42.3678 144.004 42.3678C143.402 42.3678 142.915 42.2751 142.521 42.0664C142.127 41.8578 141.709 41.4868 141.269 40.9305L138.186 42.5996C139.298 44.4774 141.246 45.4047 144.028 45.4047C145.975 45.4047 147.528 44.9179 148.734 43.9442C149.939 42.9705 150.542 41.6028 150.542 39.8409V29.3622ZM144.19 37.2908C143.379 37.2908 142.706 37.0589 142.196 36.5489C141.663 36.0389 141.408 35.4129 141.408 34.6247C141.408 33.8597 141.663 33.2338 142.173 32.7237C142.683 32.2369 143.355 31.9819 144.19 31.9819C144.932 31.9819 145.581 32.2369 146.114 32.7469C146.624 33.2569 146.902 33.8829 146.902 34.6247C146.902 35.4129 146.624 36.0389 146.114 36.5489C145.581 37.0589 144.932 37.2908 144.19 37.2908Z" fill="#3E6CF9"/>
<path d="M43.8817 21.0632C43.8817 23.264 40.3501 24.8773 39.7082 26.863C39.0427 28.921 40.9329 32.3073 39.6918 34.0205C38.4383 35.751 34.6402 34.9851 32.918 36.2439C31.2127 37.4907 30.771 41.3631 28.7224 42.0316C26.7458 42.676 24.1316 39.8251 21.9409 39.8251C19.7501 39.8251 17.136 42.676 15.1594 42.0311C13.1107 41.3631 12.669 37.4907 10.9637 36.2434C9.24157 34.9841 5.44249 35.7505 4.18989 34.02C2.94881 32.3068 4.83899 28.9205 4.17356 26.8625C3.53166 24.8773 0 23.264 0 21.0632C0 18.8624 3.53166 17.2491 4.17356 15.2635C4.83899 13.2054 2.94881 9.81914 4.18989 8.10598C5.44345 6.37545 9.24157 7.14136 10.9637 5.88253C12.669 4.63576 13.1107 0.763298 15.1594 0.0948171C17.136 -0.549548 19.7501 2.30138 21.9409 2.30138C24.1316 2.30138 26.7458 -0.549548 28.7224 0.0952999C30.771 0.763299 31.2127 4.63576 32.918 5.88301C34.6402 7.14232 38.4392 6.37593 39.6918 8.10646C40.9329 9.81962 39.0427 13.2059 39.7082 15.2639C40.3501 17.2491 43.8817 18.8624 43.8817 21.0632Z" fill="#3E6CF9"/>
<path d="M25.8763 17.3458C24.9996 21.2912 21.8579 22.6428 20.3966 22.8255C25.3283 23.9214 25.8763 27.2093 25.8763 28.3052C26.9723 23.9214 29.7121 23.3735 31.356 22.8255C26.4243 21.7296 25.8763 17.8938 25.8763 17.3458Z" fill="#3E6CF9"/>
<path d="M17.6568 11.3181C17.1307 13.6853 15.2457 14.4963 14.369 14.6059C17.328 15.2635 17.6568 17.2362 17.6568 17.8938C18.3143 15.2635 19.9583 14.9347 20.9446 14.6059C17.9856 13.9484 17.6568 11.6469 17.6568 11.3181Z" fill="#3E6CF9"/>
<path d="M14.3689 24.4694C13.8429 26.8367 11.9579 27.6477 11.0811 27.7572C14.0402 28.4148 14.3689 30.3875 14.3689 31.0451C15.0265 28.4148 16.6704 28.086 17.6568 27.7572C14.6977 27.0997 14.3689 24.7982 14.3689 24.4694Z" fill="#3E6CF9"/>
<path d="M32.9321 22.5644C32.8754 22.4511 32.7338 22.3944 32.6204 22.3661C31.9689 22.3661 26.3595 22.1395 26.3595 15.6236C26.3595 15.4253 26.1896 15.2553 25.9912 15.2553C25.7929 15.2553 25.623 15.4253 25.623 15.6236C25.623 22.1395 20.0136 22.3661 19.3904 22.3661C19.3054 22.3661 19.2204 22.3944 19.1637 22.4511C19.1071 22.4794 19.0788 22.5361 19.0504 22.5644C18.9938 22.6777 18.9938 22.8194 19.0504 22.9327C19.1071 23.046 19.2487 23.131 19.3904 23.131C19.3904 23.131 19.3904 23.131 19.4187 23.131C20.0703 23.131 25.6513 23.3577 25.6513 29.8735C25.6513 30.0718 25.8213 30.2418 26.0196 30.2418C26.2179 30.2418 26.3879 30.0718 26.3879 29.8735C26.3879 23.386 31.9689 23.131 32.6204 23.131C32.7621 23.131 32.8754 23.046 32.9604 22.9327C33.0171 22.8194 33.0171 22.6777 32.9321 22.5644ZM25.9912 27.0972C25.1697 24.4059 23.1583 23.2443 21.5718 22.7344C23.1583 22.2245 25.1697 21.0629 25.9912 18.3716C26.8128 21.0629 28.8242 22.2245 30.4107 22.7344C28.8242 23.2443 26.8128 24.4059 25.9912 27.0972Z" fill="white"/>
<path d="M21.317 15.1988C21.5153 15.1988 21.6853 15.0288 21.6853 14.8022C21.6853 14.6039 21.5153 14.4339 21.317 14.4339C20.977 14.4339 17.9174 14.3206 17.9174 10.751C17.9174 10.5527 17.7474 10.3827 17.5491 10.3827C17.3508 10.3827 17.1808 10.5527 17.1808 10.751C17.1808 14.3206 14.1212 14.4339 13.7813 14.4339C13.7529 14.4339 13.7529 14.4339 13.7529 14.4339C13.5546 14.4622 13.413 14.6039 13.413 14.8022C13.413 15.0005 13.5829 15.1705 13.7813 15.1705C14.1495 15.1705 17.1808 15.2838 17.1808 18.8534C17.1808 19.0517 17.3508 19.2216 17.5491 19.2216C17.7191 19.25 17.8891 19.08 17.8891 18.8817C17.8891 15.3121 20.9487 15.1988 21.2887 15.1988H21.317ZM17.5208 16.8136C17.0675 15.7371 16.246 15.1421 15.481 14.8022C16.3026 14.4622 17.0675 13.8106 17.5208 12.7908C17.9741 13.8673 18.7956 14.4622 19.5605 14.8022C18.739 15.1421 17.9741 15.7937 17.5208 16.8136Z" fill="white"/>
<path d="M18.0591 27.2106C17.7192 27.2106 14.6595 27.0973 14.6595 23.5277C14.6595 23.3294 14.4896 23.1594 14.2913 23.1594C14.0929 23.1594 13.923 23.3294 13.923 23.5277C13.923 27.0973 10.8633 27.2106 10.5234 27.2106C10.495 27.2106 10.495 27.2106 10.495 27.2106C10.2967 27.2389 10.1551 27.3806 10.1551 27.5789C10.1551 27.7772 10.3251 27.9472 10.5234 27.9472C10.8917 27.9472 13.923 28.0605 13.923 31.6301C13.923 31.8284 14.0929 31.9983 14.2913 31.9983C14.4612 32.055 14.6312 31.885 14.6312 31.6584C14.6312 28.0888 17.6908 27.9755 18.0308 27.9755H18.0591C18.2574 27.9755 18.4274 27.8055 18.4274 27.5789C18.4274 27.3806 18.2574 27.2106 18.0591 27.2106ZM14.2629 29.6186C13.7813 28.5421 12.9881 27.9472 12.2232 27.6072C13.0447 27.2673 13.8096 26.6157 14.2629 25.5958C14.7162 26.6723 15.5378 27.2673 16.3027 27.6072C15.4811 27.9472 14.7162 28.5988 14.2629 29.6186Z" fill="white"/>
</svg>
