<svg width="239" height="245" viewBox="0 0 239 245" fill="none" xmlns="http://www.w3.org/2000/svg">
<path d="M111.755 23.2565C96.0489 22.7857 81.5359 30.6929 70.8909 45.5232C63.5177 55.7951 60.7382 68.4986 62.6308 83.281C64.111 94.846 68.454 107.71 75.5389 121.517C80.454 131.094 85.9567 139.73 90.7826 146.638C55.8261 118.163 23.6005 79.5661 23.2286 79.1186C22.376 78.0926 20.9239 77.7991 19.74 78.4136C18.5552 79.0275 17.9596 80.384 18.3076 81.6718C18.4033 82.0256 20.7349 90.4918 28.2899 104.089C32.8341 112.268 39.9391 123.426 50.4788 136.194C35.9282 125.271 27.4563 118.202 27.2732 118.049C26.1788 117.131 24.5717 117.168 23.5249 118.14C22.4762 119.109 22.3116 120.706 23.1401 121.869C23.2525 122.028 34.625 137.903 54.7697 158.636C73.3525 177.762 103.459 205.107 141.355 226.765C142.399 227.361 143.662 227.222 144.544 226.511C144.812 226.295 145.045 226.026 145.226 225.709C146.004 224.349 145.531 222.616 144.171 221.838C106.891 200.533 77.2372 173.606 58.925 154.769C52.9997 148.674 47.8464 143.009 43.5296 138.056C61.0471 151.347 88.9619 171.457 122.555 191.848C123.894 192.661 125.639 192.234 126.452 190.894C127.265 189.555 126.838 187.81 125.499 186.997C124.139 186.172 122.791 185.347 121.45 184.523C120.802 183.637 115.005 175.603 110.721 165.879C106.752 156.871 103.309 144.576 109.444 137.155C115.516 129.811 134.5 127.87 162.901 131.693C169.668 132.603 176.279 133.745 182.213 134.896C177.499 134.997 172.435 135.145 167.326 135.363C155.511 135.868 145.758 136.641 138.34 137.662C125.166 139.474 121.709 141.736 120.171 143.503C117.546 146.517 117.169 152.922 132.056 179.152C135.827 185.797 139.79 192.289 142.919 197.287C140.698 196.012 138.477 194.723 136.259 193.421C134.907 192.628 133.169 193.081 132.375 194.432C131.582 195.783 132.035 197.521 133.386 198.315C141.93 203.329 150.523 208.164 158.929 212.687C159.965 213.245 161.193 213.092 162.055 212.398C162.341 212.167 162.586 211.877 162.772 211.533C163.514 210.154 162.997 208.433 161.617 207.69C158.913 206.236 156.188 204.745 153.453 203.229C152.372 201.583 144.748 189.917 137.612 177.443C123.615 152.975 124.287 147.871 124.515 147.16C125.025 146.668 127.601 144.868 139.104 143.284C146.344 142.287 155.913 141.53 167.547 141.033C187.439 140.183 206.67 140.396 206.862 140.398C208.29 140.415 209.509 139.366 209.706 137.951C209.902 136.535 209.015 135.195 207.635 134.822C207.425 134.766 186.454 129.14 163.71 126.076C132.384 121.854 112.657 124.365 105.071 133.539C101.14 138.293 100.034 144.223 100.553 150.405C99.6531 149.21 98.6945 147.914 97.693 146.528C95.4189 140.369 88.7251 120.442 90.0511 102.653C92.7111 98.3856 107.022 88.2698 116.5 88.5C120 88.5934 116.777 86.1952 115.981 84.8453C115.186 83.4951 112 83.1036 108.973 83.534C104.5 84.1701 93.7596 90.0268 92.2413 91.3476C93.7318 86.9781 96.0144 83.0254 99.35 79.8143C106.66 72.7775 114.966 69.6724 124.036 70.5878C141.388 72.3387 158.432 88.0345 168.917 99.7656C165.713 97.9538 162.094 96.0273 158.183 94.1419C138.698 84.749 122.142 81.1802 108.973 83.534C107.431 83.8103 106.404 85.2837 106.679 86.8261C106.955 88.3685 108.429 89.3956 109.971 89.1198C138.733 83.9787 179.631 113.138 180.041 113.434C181.085 114.186 182.493 114.136 183.478 113.342C183.549 113.285 183.618 113.224 183.684 113.159C184.67 112.194 184.819 110.66 184.037 109.524C183.747 109.102 176.814 99.0855 166.099 88.5484C151.501 74.1931 137.544 66.2513 124.615 64.9434C113.807 63.8499 103.982 67.4777 95.4142 75.7267C89.866 81.0681 86.3342 88.4315 84.9169 97.6132C83.8158 104.746 83.9857 113 85.4216 122.145C85.8732 125.023 86.4196 127.8 87.0108 130.417C84.8026 126.758 82.6096 122.872 80.5402 118.834C73.7735 105.63 69.6393 93.4091 68.2523 82.5113C67.5817 77.243 67.5597 72.2821 68.1829 67.6491C75.3648 57.99 89.9159 51.226 107.167 49.5383C125.621 47.7325 144.019 52.0763 157.644 61.4563C158.753 62.2199 160.245 62.0993 161.218 61.1657C162.19 60.2327 162.371 58.7454 161.653 57.6063C148.036 36.0126 130.316 23.8133 111.755 23.2565ZM110.239 177.517C96.7483 168.944 84.4306 160.613 73.6531 153.031C52.5134 132.268 40.0864 113.592 33.3809 101.568C32.2592 99.5569 31.2552 97.6589 30.3605 95.8881C46.0102 113.244 75.3183 143.882 103.63 163.449C105.507 168.61 107.952 173.488 110.239 177.517ZM106.615 43.8918C92.474 45.2755 79.902 49.9149 71.0775 56.7715C72.2467 53.9591 73.7215 51.3105 75.5003 48.8323C85.0099 35.5845 97.8252 28.5156 111.585 28.9284C125.129 29.3348 138.316 36.8931 149.542 50.4803C136.721 44.7929 121.666 42.4192 106.615 43.8918Z" fill="#F89954"/>
</svg>
